<svg width="510" height="401" viewBox="0 0 510 401" fill="none" xmlns="http://www.w3.org/2000/svg">
<g clip-path="url(#clip0)">
<path opacity="0.24" d="M508.59 252.01C506.89 278.01 500.24 305.65 480.67 322.9C464.01 337.6 440.96 342.18 421.16 352.26C403.16 361.46 386.96 375.5 369.71 386.01C367.88 387.15 366.01 388.23 364.14 389.28C353.8 395.01 342.97 399.17 331.02 400.05C325.92 400.392 320.798 400.228 315.73 399.56C314.92 399.46 314.13 399.36 313.31 399.2C307.13 398.35 301.01 397.04 294.88 395.8C266.572 389.995 237.965 385.756 209.19 383.1C206.12 382.77 203.01 382.51 199.93 382.24C198.62 382.11 197.34 382.02 196.04 381.92C181.27 380.77 165.56 381.26 150.24 380.08C148.353 379.953 146.457 379.79 144.55 379.59C137.369 378.931 130.267 377.592 123.34 375.59C83.3401 363.64 48.3401 314.51 26.8801 281.59C7.54006 251.8 -7.38994 215.01 3.88006 181.33C12.4601 155.8 34.2601 137.47 52.1001 117.33C80.1001 85.71 100.7 46.33 136.18 23.45C181.27 -5.69 239.47 -1.5 292.92 3.77C314.36 5.87 336.55 8.22 355.04 19.22C376.42 31.92 389.81 54.22 405.75 73.36C437.86 111.88 483.84 141.14 501.13 188.21C508.59 208.47 509.96 230.5 508.59 252.01Z" fill="#11648A"/>
<path opacity="0.24" d="M465.66 273.26C464.29 294.26 458.93 316.55 443.14 330.46C429.69 342.32 411.14 346.02 395.14 354.15C380.59 361.58 367.54 372.91 353.62 381.38C352.15 382.31 350.62 383.18 349.14 384.02C340.79 388.65 332.05 392.02 322.41 392.71C318.294 392.99 314.16 392.86 310.07 392.32C309.41 392.24 308.78 392.16 308.12 392.03C303.12 391.34 298.19 390.28 293.25 389.28C270.408 384.601 247.327 381.18 224.11 379.03C221.63 378.77 219.11 378.56 216.63 378.35C215.58 378.24 214.55 378.16 213.49 378.08C201.58 377.16 188.9 377.55 176.54 376.6C175.007 376.5 173.477 376.37 171.95 376.21C166.154 375.667 160.422 374.579 154.83 372.96C122.57 363.32 94.2699 323.68 76.9799 297.14C61.3799 273.14 49.3299 243.42 58.4399 216.24C65.3599 195.62 82.9499 180.85 97.3499 164.62C119.93 139.11 136.57 107.36 165.19 88.88C201.59 65.37 248.52 68.75 291.65 73C308.94 74.7 326.85 76.6 341.77 85.47C359.02 95.72 369.82 113.73 382.68 129.15C408.59 160.24 445.68 183.85 459.68 221.83C465.66 238.13 466.77 255.91 465.66 273.26Z" fill="#11648A"/>
<path d="M88.09 112.93C88.09 112.93 89.09 119.61 90.16 121.68C91.23 123.75 103.87 144.03 105.71 144.26C107.55 144.49 169.88 113.39 169.88 113.39L171.15 108.78L88.09 112.93Z" fill="#11648A"/>
<path opacity="0.26" d="M88.09 112.93C88.09 112.93 89.09 119.61 90.16 121.68C91.23 123.75 103.87 144.03 105.71 144.26C107.55 144.49 169.88 113.39 169.88 113.39L171.15 108.78L88.09 112.93Z" fill="url(#paint0_linear)"/>
<path d="M61.27 203.47C61.27 203.47 66.11 194.72 67.95 192.18C69.79 189.64 99.74 176.75 99.74 176.75C99.74 176.75 88.45 189.88 86.38 190.8C84.31 191.72 61.27 203.47 61.27 203.47Z" fill="#11648A"/>
<path opacity="0.26" d="M369.74 288.96C367.91 296.32 368.82 306.47 368.82 306.47L369.71 386.01C367.88 387.15 366.01 388.23 364.14 389.28C353.8 395.01 342.97 399.17 331.02 400.05C325.118 400.431 319.192 400.159 313.35 399.24V332.24C313.353 328.912 312.225 325.681 310.149 323.079C308.074 320.477 305.176 318.657 301.93 317.92C280.04 312.92 234.01 302.66 230.18 303.01C225.11 303.47 216.79 315.01 211.72 321.44C206.65 327.87 208.27 333.18 208.27 333.18L209.22 383.1C206.15 382.77 203.04 382.51 199.96 382.24C198.65 382.11 197.37 382.02 196.07 381.92C181.3 380.77 165.59 381.26 150.27 380.08L146.74 341.49L148.74 327.29C148.74 327.29 148.64 309.22 146.32 301.86C144 294.5 145.4 291.25 145.4 286.18C145.4 281.11 189.2 265 189.2 265L185.89 251.62C185.89 251.62 151.32 260.85 145.79 259.94C140.26 259.03 143.5 250.25 143.5 250.25L196.04 200.5L207.1 240.1C207.1 240.1 202.94 258.1 208.47 266.84C214 275.58 221.37 269.13 223.66 266.39C225.95 263.65 233.74 259.12 233.74 259.12L260.09 165.47C260.09 165.47 332.89 162.23 346.17 161.74C359.45 161.25 362.38 171.46 362.83 173.3C363.28 175.14 355.01 200.96 353.15 215.68C351.29 230.4 359.15 233.68 359.15 233.68C378.51 252.07 371.61 281.56 369.74 288.96Z" fill="url(#paint1_linear)"/>
<path d="M350.602 153.519L257.441 134.565C252.078 133.474 246.845 136.937 245.754 142.301L217.087 283.204C215.996 288.567 219.459 293.8 224.822 294.891L317.984 313.845C323.347 314.936 328.579 311.473 329.67 306.109L358.338 165.206C359.429 159.843 355.965 154.61 350.602 153.519Z" fill="#11648A"/>
<path d="M350.602 153.519L257.441 134.565C252.078 133.474 246.845 136.937 245.754 142.301L217.087 283.204C215.996 288.567 219.459 293.8 224.822 294.891L317.984 313.845C323.347 314.936 328.579 311.473 329.67 306.109L358.338 165.206C359.429 159.843 355.965 154.61 350.602 153.519Z" fill="url(#paint2_linear)"/>
<path d="M348.304 152.138L255.142 133.185C249.779 132.093 244.546 135.557 243.455 140.92L214.788 281.823C213.697 287.186 217.16 292.419 222.524 293.51L315.685 312.464C321.048 313.555 326.281 310.092 327.372 304.729L356.039 163.825C357.13 158.462 353.667 153.23 348.304 152.138Z" fill="#11648A"/>
<path d="M293.163 133.76L314.849 138.172C318.108 138.835 320.97 140.765 322.806 143.539C324.642 146.312 325.3 149.701 324.637 152.96L323.778 157.184L277.486 147.765L278.344 143.552C278.671 141.935 279.315 140.398 280.238 139.03C281.16 137.662 282.344 136.489 283.721 135.58C285.098 134.67 286.64 134.041 288.261 133.729C289.881 133.416 291.547 133.427 293.163 133.76Z" fill="#11648A"/>
<path d="M293.163 133.76L314.849 138.172C318.108 138.835 320.97 140.765 322.806 143.539C324.642 146.312 325.3 149.701 324.637 152.96L323.778 157.184L277.486 147.765L278.344 143.552C278.671 141.935 279.315 140.398 280.238 139.03C281.16 137.662 282.344 136.489 283.721 135.58C285.098 134.67 286.64 134.041 288.261 133.729C289.881 133.416 291.547 133.427 293.163 133.76Z" fill="url(#paint3_linear)"/>
<path d="M316.6 303.55L225.41 285.01L254.98 143.17L346.17 161.72L316.6 303.55Z" fill="url(#paint4_linear)"/>
<path d="M291.397 133.416L313.082 137.828C316.341 138.491 319.203 140.421 321.039 143.195C322.875 145.968 323.533 149.357 322.87 152.616L322.003 156.879L275.741 147.467L276.608 143.204C277.271 139.945 279.202 137.083 281.975 135.247C284.749 133.411 288.137 132.753 291.397 133.416Z" fill="#EEF0F2"/>
<path d="M340.84 173.62L257.52 156.67L258.8 150.37L342.12 167.31L340.84 173.62ZM259.42 155.42L339.58 171.72L340.27 168.62L260.11 152.32L259.42 155.42Z" fill="#11648A"/>
<path d="M331.72 218.44L248.4 201.5L256.02 164.05L339.34 180.99L331.72 218.44ZM250.27 200.24L330.43 216.54L337.43 182.25L257.27 165.94L250.27 200.24Z" fill="#11648A"/>
<path d="M337.03 192.36L253.71 175.42L256.02 164.05L339.34 180.99L337.03 192.36ZM255.61 174.16L335.77 190.46L337.44 182.25L257.27 165.94L255.61 174.16Z" fill="#11648A"/>
<path d="M284.92 208.15L265.44 204.15L272.91 167.44L292.39 171.44L284.92 208.15ZM267.34 204.01L283.66 207.33L290.49 172.7L274.17 169.38L267.34 204.01Z" fill="#11648A"/>
<path d="M317.69 214.81L298.2 210.81L305.67 174.1L325.15 178.1L317.69 214.81ZM300.11 209.62L316.43 212.94L323.27 179.36L306.95 176.04L300.11 209.62Z" fill="#11648A"/>
<path d="M325.68 239.48L243.38 222.74L245.14 214.07L327.45 230.8L325.68 239.48ZM245.28 221.48L324.43 237.62L325.55 232.1L246.4 216.01L245.28 221.48Z" fill="#11648A"/>
<path d="M326.46 251.24L238.41 233.33L239.83 226.33L327.88 244.24L326.46 251.24ZM240.27 232.08L325.16 249.34L325.94 245.52L241.05 228.25L240.27 232.08Z" fill="#11648A"/>
<path d="M254.8 245.62L237.27 242.01L238.4 236.49L255.96 240.06L254.8 245.62ZM239.13 240.79L253.54 243.72L254.02 241.36L239.62 238.43L239.13 240.79Z" fill="#11648A"/>
<path d="M317.586 256.141L257.693 243.956L257.51 244.857L317.403 257.043L317.586 256.141Z" fill="#11648A"/>
<path d="M253.06 254.13L235.49 250.56L236.62 245.04L254.18 248.62L253.06 254.13ZM237.39 249.3L251.8 252.24L252.28 249.87L237.88 246.94L237.39 249.3Z" fill="#11648A"/>
<path d="M315.845 264.702L255.952 252.517L255.768 253.419L315.661 265.604L315.845 264.702Z" fill="#11648A"/>
<path d="M251.32 262.69L233.75 259.12L234.88 253.6L252.44 257.17L251.32 262.69ZM235.65 257.86L250.06 260.79L250.54 258.43L236.14 255.5L235.65 257.86Z" fill="#11648A"/>
<path d="M314.103 273.264L254.21 261.078L254.027 261.98L313.92 274.165L314.103 273.264Z" fill="#11648A"/>
<path opacity="0.26" d="M314.67 227.95C313.94 231.47 310.25 233.56 308.72 236.81C307.968 238.75 307.604 240.819 307.65 242.9L305.7 288.62C305.47 293.85 305.27 299.23 307.01 304.17C308.75 309.11 312.9 313.56 318.11 314.04C319.734 314.214 321.37 313.863 322.78 313.04C325.85 311.15 326.54 307.04 326.88 303.49C329.07 280.38 328.83 257.11 328.1 233.91C328.133 231.784 327.853 229.665 327.27 227.62C326.13 224.34 322.15 219.34 318.7 218.23C312.65 216.24 315.27 224.83 314.67 227.95Z" fill="url(#paint5_linear)"/>
<path d="M185.758 152.381L129.392 163.337C125.429 164.107 122.841 167.945 123.612 171.908L138.382 247.895C139.152 251.858 142.99 254.447 146.953 253.676L203.318 242.72C207.281 241.95 209.869 238.113 209.099 234.15L194.328 158.162C193.558 154.199 189.721 151.611 185.758 152.381Z" fill="#11648A"/>
<path d="M187.471 146.428L124.333 158.701C121.15 159.319 119.072 162.401 119.69 165.583L124.335 189.476C124.953 192.658 128.035 194.736 131.217 194.118L194.355 181.845C197.538 181.226 199.616 178.145 198.997 174.963L194.353 151.07C193.734 147.888 190.653 145.809 187.471 146.428Z" fill="#11648A"/>
<path d="M186.524 152.935L127.862 164.337C125.748 164.748 124.367 166.795 124.778 168.91L127.104 180.876C127.515 182.99 129.562 184.371 131.676 183.96L190.338 172.557C192.453 172.146 193.833 170.099 193.422 167.985L191.096 156.019C190.685 153.904 188.638 152.524 186.524 152.935Z" fill="#EEF0F2"/>
<path d="M146.276 195.867L136.155 197.834C135.06 198.047 134.345 199.107 134.558 200.202L135.825 206.72C136.038 207.815 137.098 208.53 138.193 208.318L148.314 206.35C149.409 206.138 150.124 205.077 149.911 203.982L148.644 197.464C148.432 196.369 147.371 195.654 146.276 195.867Z" fill="#EEF0F2"/>
<path d="M161.986 192.815L151.865 194.782C150.77 194.995 150.055 196.055 150.268 197.151L151.534 203.669C151.747 204.764 152.808 205.479 153.903 205.266L164.023 203.299C165.119 203.086 165.834 202.026 165.621 200.93L164.354 194.412C164.141 193.317 163.081 192.602 161.986 192.815Z" fill="#EEF0F2"/>
<path d="M177.693 189.754L167.572 191.721C166.477 191.934 165.762 192.994 165.975 194.089L167.242 200.607C167.455 201.702 168.515 202.418 169.61 202.205L179.731 200.237C180.826 200.025 181.541 198.964 181.328 197.869L180.061 191.351C179.848 190.256 178.788 189.541 177.693 189.754Z" fill="#EEF0F2"/>
<path d="M148.679 208.212L138.558 210.179C137.463 210.392 136.748 211.452 136.961 212.547L138.227 219.065C138.44 220.16 139.501 220.876 140.596 220.663L150.716 218.696C151.811 218.483 152.527 217.422 152.314 216.327L151.047 209.809C150.834 208.714 149.774 207.999 148.679 208.212Z" fill="#EEF0F2"/>
<path d="M164.388 205.16L154.267 207.127C153.172 207.34 152.457 208.401 152.67 209.496L153.937 216.014C154.15 217.109 155.21 217.824 156.305 217.611L166.426 215.644C167.521 215.431 168.236 214.371 168.023 213.276L166.756 206.758C166.543 205.663 165.483 204.947 164.388 205.16Z" fill="#EEF0F2"/>
<path d="M180.095 202.109L169.975 204.076C168.88 204.289 168.165 205.349 168.377 206.444L169.644 212.962C169.857 214.057 170.918 214.773 172.013 214.56L182.133 212.593C183.228 212.38 183.944 211.319 183.731 210.224L182.464 203.706C182.251 202.611 181.191 201.896 180.095 202.109Z" fill="#EEF0F2"/>
<path d="M151.071 220.567L140.95 222.534C139.855 222.747 139.14 223.807 139.353 224.902L140.62 231.42C140.833 232.516 141.893 233.231 142.988 233.018L153.109 231.051C154.204 230.838 154.919 229.777 154.706 228.682L153.439 222.164C153.226 221.069 152.166 220.354 151.071 220.567Z" fill="#EEF0F2"/>
<path d="M166.79 217.515L156.67 219.483C155.575 219.695 154.859 220.756 155.072 221.851L156.339 228.369C156.552 229.464 157.612 230.179 158.707 229.966L168.828 227.999C169.923 227.786 170.638 226.726 170.426 225.631L169.159 219.113C168.946 218.018 167.885 217.302 166.79 217.515Z" fill="#EEF0F2"/>
<path d="M182.498 214.454L172.377 216.421C171.282 216.634 170.567 217.694 170.78 218.79L172.047 225.308C172.26 226.403 173.32 227.118 174.415 226.905L184.536 224.938C185.631 224.725 186.346 223.665 186.133 222.569L184.866 216.051C184.653 214.956 183.593 214.241 182.498 214.454Z" fill="#EEF0F2"/>
<path d="M153.473 232.912L143.353 234.879C142.258 235.092 141.542 236.153 141.755 237.248L143.022 243.766C143.235 244.861 144.295 245.576 145.391 245.363L155.511 243.396C156.606 243.183 157.322 242.123 157.109 241.028L155.842 234.51C155.629 233.414 154.568 232.699 153.473 232.912Z" fill="#EEF0F2"/>
<path d="M169.183 229.86L159.062 231.828C157.967 232.041 157.252 233.101 157.465 234.196L158.732 240.714C158.944 241.809 160.005 242.524 161.1 242.312L171.221 240.344C172.316 240.131 173.031 239.071 172.818 237.976L171.551 231.458C171.338 230.363 170.278 229.648 169.183 229.86Z" fill="#EEF0F2"/>
<path d="M184.9 226.809L174.78 228.776C173.685 228.989 172.969 230.05 173.182 231.145L174.449 237.663C174.662 238.758 175.722 239.473 176.817 239.26L186.938 237.293C188.033 237.08 188.748 236.02 188.536 234.925L187.269 228.407C187.056 227.311 185.995 226.596 184.9 226.809Z" fill="#EEF0F2"/>
<path d="M193.826 186.619L183.803 188.567C182.708 188.78 181.993 189.84 182.206 190.935L183.003 195.039C183.216 196.134 184.277 196.849 185.372 196.636L195.394 194.688C196.489 194.475 197.205 193.415 196.992 192.32L196.194 188.216C195.981 187.121 194.921 186.406 193.826 186.619Z" fill="#EEF0F2"/>
<path d="M195.513 195.317L185.49 197.265C184.395 197.478 183.68 198.538 183.893 199.633L184.698 203.776C184.911 204.871 185.971 205.586 187.066 205.373L197.089 203.425C198.184 203.212 198.899 202.152 198.686 201.057L197.881 196.914C197.668 195.819 196.608 195.104 195.513 195.317Z" fill="#EEF0F2"/>
<path d="M197.26 204.268L187.238 206.217C186.143 206.429 185.428 207.49 185.64 208.585L186.446 212.727C186.659 213.822 187.719 214.538 188.814 214.325L198.836 212.377C199.932 212.164 200.647 211.103 200.434 210.008L199.629 205.866C199.416 204.771 198.355 204.055 197.26 204.268Z" fill="#EEF0F2"/>
<path d="M199 213.242L188.978 215.19C187.882 215.403 187.167 216.463 187.38 217.558L188.185 221.7C188.398 222.796 189.458 223.511 190.554 223.298L200.576 221.35C201.671 221.137 202.386 220.077 202.173 218.981L201.368 214.839C201.155 213.744 200.095 213.029 199 213.242Z" fill="#EEF0F2"/>
<path d="M200.826 222.637L190.804 224.586C189.709 224.798 188.993 225.859 189.206 226.954L190.685 234.562C190.898 235.657 191.958 236.372 193.053 236.159L203.076 234.211C204.171 233.998 204.886 232.938 204.673 231.842L203.194 224.235C202.982 223.14 201.921 222.425 200.826 222.637Z" fill="#EEF0F2"/>
<path d="M319.98 225.44C320.42 227.99 322.67 229.73 324.83 230.92C330.34 233.92 336.75 235.62 340.96 240.55C342.999 243.043 344.297 246.059 344.705 249.254C345.114 252.449 344.616 255.694 343.27 258.62C342.8 259.57 342.11 260.55 341.1 260.62C340.232 260.586 339.409 260.229 338.79 259.62C332.677 254.668 328.403 247.809 326.65 240.14C326.15 237.95 325.8 235.6 324.43 233.88C322.22 231.1 317.94 231.15 315.43 233.39C312.92 235.63 323.85 286.59 322.55 303.33C322.42 304.97 322.27 306.75 323.08 308.19C323.464 308.829 323.966 309.389 324.56 309.84C329.04 313.48 335.33 313.36 340.3 311.03C345.27 308.7 349.2 304.5 352.92 300.29C355.526 297.494 357.847 294.446 359.85 291.19C365.54 281.36 365.85 268.63 363.3 257.05C361.25 247.86 357.43 238.93 351.52 231.8C346.949 226.115 340.886 221.814 334.01 219.38C329.67 217.97 318.64 217.52 319.98 225.44Z" fill="url(#paint6_linear)"/>
<path d="M360.31 304.35H321.19V312.07H360.31V304.35Z" fill="#EEF0F2"/>
<path d="M364.14 311.94L369.71 386.01C359.37 391.74 342.97 399.17 331.02 400.01C325.92 400.352 320.798 400.188 315.73 399.52V311.94H364.14Z" fill="#11648A"/>
<path d="M384.55 198.74C392.354 198.74 398.68 192.414 398.68 184.61C398.68 176.806 392.354 170.48 384.55 170.48C376.746 170.48 370.42 176.806 370.42 184.61C370.42 192.414 376.746 198.74 384.55 198.74Z" fill="#11648A"/>
<path d="M380.07 167.03C387.874 167.03 394.2 160.704 394.2 152.9C394.2 145.096 387.874 138.77 380.07 138.77C372.266 138.77 365.94 145.096 365.94 152.9C365.94 160.704 372.266 167.03 380.07 167.03Z" fill="#11648A"/>
<path d="M155.96 80.51C162.338 89.1657 167.452 98.6843 171.15 108.78C154.92 117.07 125.9 130.94 109.46 138.78C108.478 139.391 107.321 139.661 106.17 139.55C104.87 139.28 103.98 138.12 103.17 137.03C98.7833 130.757 94.5833 124.323 90.57 117.73C88.09 113.68 86.43 112.65 90.64 109.92C93.84 107.84 97.29 106.07 100.64 104.28C114.27 97 141.27 85.19 155.96 80.51Z" fill="#11648A"/>
<path opacity="0.26" d="M94.54 115.22C94.54 115.22 97.65 112.22 98.01 109.34L148.2 86.2C148.2 86.2 154.41 89.08 156.92 88.12L164.92 103.12C164.92 103.12 163.27 106.62 163.27 108.75L113.56 133.09C113.56 133.09 107.94 132.49 105.08 132.97L94.54 115.22Z" fill="url(#paint7_linear)"/>
<path d="M149.56 122.68C149.378 123.107 149.037 123.448 148.61 123.63C146.251 124.947 143.761 126.012 141.18 126.81C140.474 127.056 139.725 127.154 138.98 127.1C138.869 127.088 138.761 127.058 138.66 127.01C137.18 126.61 136.3 125.01 135.66 123.57C132.15 116.2 128.66 108.84 125.18 101.47C124.89 100.85 124.33 99.87 123.74 98.79L123.58 98.53C122.764 97.1642 122.093 95.7162 121.58 94.21C121.52 94.1207 121.486 94.0171 121.48 93.91C121.431 93.8313 121.4 93.7424 121.39 93.65C121.201 93.1232 121.201 92.5468 121.39 92.02C122.14 90.41 129.47 88.71 131.14 88.12C131.634 87.9058 132.173 87.8165 132.71 87.86C133.351 88.0161 133.919 88.3866 134.32 88.91C137.16 91.91 138.8 95.81 140.37 99.64C143.35 106.973 146.35 114.307 149.37 121.64C149.535 121.96 149.601 122.322 149.56 122.68Z" fill="#EEF0F2"/>
<path d="M68.1099 198.87C64.0199 200.78 59.4299 203.3 58.5699 207.74C63.1299 206.25 67.5699 210.15 70.7299 213.74L80.2699 224.21C80.6489 224.717 81.1613 225.108 81.75 225.34C82.5105 225.465 83.2911 225.335 83.9699 224.97C93.9699 220.87 103.9 216.57 113.76 212.07C115.04 211.49 116.47 210.74 116.84 209.37C117.005 208.343 116.833 207.291 116.35 206.37C113.46 198.97 108.73 173.24 98.07 177.28C93.75 178.93 90.0699 185.21 86.6299 188.14C81.0699 192.79 74.5899 195.85 68.1099 198.87Z" fill="#11648A"/>
<path d="M438.92 290.07C425.894 281.415 411.551 274.927 396.45 270.86C395.45 270.58 394.18 270.35 393.35 271.04C392.786 271.656 392.463 272.455 392.44 273.29C391.067 282.95 389.7 292.617 388.34 302.29C388.129 303.138 388.178 304.03 388.48 304.85C389.1 306.11 390.69 306.47 392.06 306.74C403.335 308.948 413.708 314.434 421.88 322.51C424.88 325.51 428.88 329.11 432.71 327.35C435.77 325.95 436.48 322.01 436.8 318.66L439.32 291.76" fill="#11648A"/>
<path d="M213.76 265.99C216.9 261.5 221.76 256.99 227.09 258.14C227.521 258.196 227.936 258.338 228.31 258.558C228.685 258.778 229.011 259.071 229.27 259.42C229.98 260.56 229.4 262.03 228.82 263.24L218.13 285.44C217.02 287.888 215.743 290.256 214.31 292.53C208.22 301.69 197.21 307.18 192.67 317.19C189.82 323.49 189.49 331.53 183.91 335.61C180.91 337.83 176.91 338.29 173.12 338.36C169.985 338.407 166.851 338.233 163.74 337.84C161.959 337.707 160.225 337.203 158.65 336.36C157.574 335.6 156.658 334.634 155.956 333.518C155.254 332.403 154.78 331.16 154.56 329.86C154.141 327.26 153.917 324.633 153.89 322C152.98 308.17 145.58 295.38 144.72 281.54C144.4 276.4 145.72 270.25 150.41 268.22C152.06 267.52 153.94 267.43 155.51 266.58C157.44 265.58 158.77 263.46 160.88 262.88C162.99 262.3 165.48 263.41 167.45 262.39C169.2 261.49 169.88 259.23 171.59 258.25C173.46 257.17 175.8 257.98 177.95 258C183.22 258.06 187.35 253.25 189.04 248.27C190.73 243.29 190.77 237.88 192.28 232.84C193.11 230.1 195.01 227.07 197.86 227.2C199.93 227.29 201.57 229.14 202.11 231.14C202.508 233.172 202.491 235.264 202.06 237.29C200.627 247.655 199.823 258.098 199.65 268.56C199.59 272.4 199.77 279.14 205.09 276.04C208.9 273.79 211.27 269.54 213.76 265.99Z" fill="url(#paint8_linear)"/>
<path d="M195.67 327.31H148.68V336.04H195.67V327.31Z" fill="#EEF0F2"/>
<path d="M199.93 335.01V382.24C198.62 382.11 197.34 382.02 196.04 381.92C179.44 380.64 161.63 381.39 144.55 379.59V335.01H199.93Z" fill="#11648A"/>
<path d="M320.73 215.77C320.407 215.532 320.021 215.396 319.62 215.38C319.318 215.435 319.035 215.567 318.798 215.763C318.562 215.959 318.38 216.213 318.27 216.5C316.81 219.32 318.04 222.73 319.27 225.66L329.62 249.97C332.9 257.68 336.22 265.45 341.04 272.29C341.329 272.822 341.721 273.292 342.193 273.671C342.665 274.05 343.208 274.332 343.79 274.5C344.58 274.581 345.372 274.363 346.01 273.89C348.01 272.56 348.83 269.94 348.67 267.54C348.371 265.152 347.696 262.827 346.67 260.65C343.45 252.65 340.34 245.65 336.42 238.11C332.27 230.08 328.86 220.72 320.73 215.77Z" fill="#11648A"/>
<path d="M320.73 215.77C320.407 215.532 320.021 215.396 319.62 215.38C319.318 215.435 319.035 215.567 318.798 215.763C318.562 215.959 318.38 216.213 318.27 216.5C316.81 219.32 318.04 222.73 319.27 225.66L329.62 249.97C332.9 257.68 336.22 265.45 341.04 272.29C341.329 272.822 341.721 273.292 342.193 273.671C342.665 274.05 343.208 274.332 343.79 274.5C344.58 274.581 345.372 274.363 346.01 273.89C348.01 272.56 348.83 269.94 348.67 267.54C348.371 265.152 347.696 262.827 346.67 260.65C343.45 252.65 340.34 245.65 336.42 238.11C332.27 230.08 328.86 220.72 320.73 215.77Z" fill="url(#paint9_linear)"/>
<path d="M323.86 232.82C325.37 234.71 327.091 236.421 328.99 237.92C332.82 241.22 336.65 244.76 338.99 249.46C339.877 251.351 340.665 253.287 341.35 255.26C341.66 256.07 342.16 257.02 342.95 257C343.74 256 343.45 254.47 343.1 253.2C341.974 249.001 340.499 244.903 338.69 240.95C335.996 235.569 332.879 230.409 329.37 225.52C328.367 223.929 327.208 222.442 325.91 221.08C325.333 220.397 324.518 219.957 323.63 219.85C321.71 219.85 320.09 222.85 320.27 224.77C320.57 227.5 322.34 230.74 323.86 232.82Z" fill="url(#paint10_linear)"/>
<path d="M346.587 272.331C348.466 270.731 349.189 268.492 348.2 267.332C347.212 266.171 344.887 266.528 343.008 268.129C341.128 269.73 340.406 271.968 341.394 273.128C342.382 274.289 344.707 273.932 346.587 272.331Z" fill="url(#paint11_linear)"/>
<path d="M331.2 219.06C331.2 219.06 323.67 217.91 321.6 220.45C319.53 222.99 321.52 230.2 328.12 232.66C332.197 234.192 336.067 236.228 339.64 238.72C339.64 238.72 335.19 220.62 331.2 219.06Z" fill="url(#paint12_linear)"/>
<path d="M342.79 270.62C342.79 270.62 343.96 268.19 346.13 268.55L349.47 275.05C349.47 275.05 349.74 280.91 345.77 277.05L342.79 270.62Z" fill="#11648A"/>
<path d="M342.79 270.62C342.79 270.62 343.96 268.19 346.13 268.55L349.47 275.05C349.47 275.05 349.74 280.91 345.77 277.05L342.79 270.62Z" fill="url(#paint13_linear)"/>
<path opacity="0.26" d="M85.88 193.25C88.15 192.05 90.48 190.8 92.07 188.79C93.49 186.97 94.19 184.69 95.44 182.79C96.69 180.89 98.9 179.17 101.15 179.7C102.641 180.211 103.909 181.221 104.74 182.56C109.082 188.304 111.909 195.047 112.96 202.17C102.77 201.01 92.96 205.7 83.64 210.06C80.35 211.61 76.64 213.16 73.18 212.06C70.74 211.28 68.78 209.29 67.01 207.51C64.21 204.72 65.34 204.16 68.54 202.51L85.88 193.25Z" fill="url(#paint14_linear)"/>
<path opacity="0.26" d="M137.51 124.79L148.65 119.9C149.067 120.878 149.369 121.902 149.55 122.95C149.43 123.44 142.23 127.04 139.87 126.78C137.51 126.52 136.87 125.25 136.87 125.25L137.51 124.79Z" fill="url(#paint15_linear)"/>
<path opacity="0.26" d="M138.66 127.01C137.18 126.61 136.3 125.01 135.66 123.57C132.15 116.2 128.66 108.84 125.18 101.47C124.89 100.85 124.33 99.87 123.74 98.79L123.58 98.53C122.4 95.94 121.58 94.24 121.58 94.24C121.556 94.1371 121.523 94.0367 121.48 93.94C121.431 93.8613 121.4 93.7724 121.39 93.68C121.12 93.09 120.93 92.24 121.39 92.05C122.17 91.75 123.97 93.75 123.97 93.75L137.97 124.42L138.66 127.01Z" fill="url(#paint16_linear)"/>
<path d="M226.72 26.62C226.72 26.62 224.13 32.87 223.94 35.18C223.75 37.49 224.01 61.4 225.47 62.55C226.93 63.7 296.33 69.55 296.33 69.55L299.81 66.28L226.72 26.62Z" fill="#11648A"/>
<path opacity="0.26" d="M226.72 26.62C226.72 26.62 224.13 32.87 223.94 35.18C223.75 37.49 224.01 61.4 225.47 62.55C226.93 63.7 296.33 69.55 296.33 69.55L299.81 66.28L226.72 26.62Z" fill="url(#paint17_linear)"/>
<path d="M301.55 34.26C302.484 44.9553 301.898 55.729 299.81 66.26C281.63 64.89 249.64 61.63 231.51 59.79C230.348 59.8132 229.21 59.4549 228.27 58.77C227.27 57.87 227.15 56.41 227.07 55.09C226.57 47.4033 226.32 39.71 226.32 32.01C226.32 27.25 225.43 25.51 230.45 25.37C234.26 25.26 238.13 25.55 241.93 25.76C257.37 26.62 286.55 30.62 301.55 34.26Z" fill="#11648A"/>
<path opacity="0.26" d="M231.04 31.93C231.04 31.93 235.25 30.99 237.04 28.72L291.94 35.07C291.94 35.07 295.75 40.76 298.39 41.25L297.39 58.25C297.39 58.25 294.16 60.35 293.03 62.19L237.97 57.07C237.97 57.07 233.48 53.64 230.78 52.56L231.04 31.93Z" fill="url(#paint18_linear)"/>
<path d="M274.13 66.93C273.756 67.2048 273.289 67.3199 272.83 67.25C270.13 67.147 267.449 66.7616 264.83 66.1C264.112 65.9346 263.433 65.6324 262.83 65.21C262.737 65.1387 262.659 65.0505 262.6 64.95C261.54 63.85 261.6 62.02 261.82 60.45C262.66 52.34 263.53 44.24 264.37 36.13C264.44 35.45 264.48 34.32 264.54 33.13C264.54 33.01 264.54 32.94 264.54 32.82C264.555 31.2283 264.739 29.6427 265.09 28.09C265.077 27.9849 265.102 27.8787 265.16 27.79C265.153 27.6972 265.17 27.6042 265.21 27.52C265.337 26.9731 265.648 26.4861 266.09 26.14C267.57 25.14 274.71 27.52 276.44 27.89C276.976 27.9548 277.486 28.1582 277.92 28.48C278.384 28.9463 278.677 29.5561 278.75 30.21C279.63 34.21 278.98 38.44 278.33 42.53C277.07 50.31 275.813 58.1167 274.56 65.95C274.522 66.3136 274.372 66.6563 274.13 66.93Z" fill="#EEF0F2"/>
<path opacity="0.26" d="M262.75 62.46L274.81 64.08C274.658 65.1351 274.382 66.1688 273.99 67.16C273.63 67.51 265.61 66.84 263.73 65.39C261.85 63.94 261.97 62.53 261.97 62.53L262.75 62.46Z" fill="url(#paint19_linear)"/>
<path opacity="0.26" d="M262.58 64.95C261.52 63.85 261.58 62.02 261.8 60.45C262.64 52.34 263.51 44.24 264.35 36.13C264.42 35.45 264.46 34.32 264.52 33.13C264.52 33.01 264.52 32.94 264.52 32.82C264.86 30 265.08 28.14 265.08 28.14C265.08 28.14 265.08 27.97 265.15 27.84C265.143 27.7472 265.16 27.6542 265.2 27.57C265.28 26.93 265.56 26.1 266.08 26.19C266.9 26.34 267.4 28.98 267.4 28.98L263.4 62.46L262.58 64.95Z" fill="url(#paint20_linear)"/>
<path d="M417.73 209.48C417.73 209.48 424.22 211.36 426.54 211.3C428.86 211.24 452.59 208.3 453.54 206.76C454.49 205.22 452.71 135.56 452.71 135.56L449.07 132.46L417.73 209.48Z" fill="#11648A"/>
<path opacity="0.26" d="M417.73 209.48C417.73 209.48 424.22 211.36 426.54 211.3C428.86 211.24 452.59 208.3 453.54 206.76C454.49 205.22 452.71 135.56 452.71 135.56L449.07 132.46L417.73 209.48Z" fill="url(#paint21_linear)"/>
<path d="M417.07 134.26C427.598 132.152 438.372 131.546 449.07 132.46C449.72 150.68 450 182.83 450.18 201.06C450.312 202.21 450.066 203.372 449.48 204.37C448.69 205.43 447.25 205.75 445.95 205.98C438.37 207.313 430.75 208.407 423.09 209.26C418.37 209.79 416.73 210.86 416.04 205.89C415.51 202.12 415.37 198.24 415.16 194.44C414.37 179.01 415.08 149.62 417.07 134.26Z" fill="#11648A"/>
<path opacity="0.26" d="M422.53 204.62C422.53 204.62 421.13 200.54 418.68 199L418.94 143.73C418.94 143.73 424.18 139.31 424.37 136.63L441.37 135.72C441.37 135.72 443.81 138.72 445.77 139.62L446.77 194.96C446.77 194.96 443.85 199.8 443.07 202.6L422.53 204.62Z" fill="url(#paint22_linear)"/>
<path d="M452.57 157.91C452.881 158.254 453.046 158.706 453.03 159.17C453.23 161.865 453.14 164.574 452.76 167.25C452.687 167.991 452.463 168.709 452.1 169.36C452.043 169.456 451.968 169.541 451.88 169.61C450.88 170.78 449.07 170.9 447.49 170.89C439.33 170.89 431.19 170.97 423.04 171.03C422.35 171.03 421.22 171.12 420.04 171.2H419.73C418.147 171.361 416.553 171.361 414.97 171.2C414.869 171.232 414.761 171.232 414.66 171.2C414.568 171.224 414.472 171.224 414.38 171.2C413.824 171.13 413.306 170.877 412.91 170.48C411.78 169.12 413.34 161.76 413.51 159.99C413.525 159.452 413.673 158.927 413.94 158.46C414.354 157.951 414.929 157.599 415.57 157.46C419.47 156.14 423.72 156.32 427.86 156.51C435.73 156.9 443.63 157.31 451.55 157.68C451.905 157.653 452.26 157.734 452.57 157.91Z" fill="#EEF0F2"/>
<path opacity="0.26" d="M449.39 169.72L449.66 157.55C450.725 157.586 451.782 157.747 452.81 158.03C453.2 158.34 453.42 166.39 452.19 168.42C450.96 170.45 449.54 170.49 449.54 170.49L449.39 169.72Z" fill="url(#paint23_linear)"/>
<path opacity="0.26" d="M451.88 169.62C450.88 170.79 449.07 170.91 447.49 170.9C439.33 170.9 431.19 170.98 423.04 171.04C422.35 171.04 421.22 171.13 420.04 171.21H419.73H415.01C414.95 171.21 414.83 171.21 414.7 171.21C414.608 171.234 414.512 171.234 414.42 171.21C413.78 171.21 412.92 171.02 412.95 170.49C413.02 169.65 415.59 168.87 415.59 168.87L449.31 169.15L451.88 169.62Z" fill="url(#paint24_linear)"/>
<path d="M150.91 176.98L150.7 175.98L151.77 174.44C154.35 170.79 155.47 168.91 155.12 167.03C155.089 166.692 154.982 166.366 154.807 166.075C154.633 165.785 154.395 165.537 154.111 165.351C153.828 165.164 153.506 165.044 153.17 164.999C152.834 164.954 152.492 164.985 152.17 165.09C151.206 165.317 150.35 165.872 149.75 166.66L148.97 165.58C149.79 164.549 150.948 163.84 152.24 163.58C152.726 163.437 153.236 163.4 153.737 163.47C154.239 163.54 154.719 163.717 155.147 163.987C155.575 164.258 155.94 164.617 156.218 165.04C156.496 165.463 156.681 165.94 156.76 166.44C157.21 168.73 155.91 170.91 153.76 173.95L152.95 175.07L158.53 173.98L158.81 175.37L150.91 176.98Z" fill="#11648A"/>
<path d="M161.46 173.67C161.916 173.608 162.365 173.5 162.8 173.35C163.745 173.038 164.57 172.441 165.16 171.64C165.906 170.583 166.26 169.3 166.16 168.01H166.1C165.831 168.509 165.451 168.941 164.99 169.272C164.529 169.603 163.999 169.824 163.44 169.92C162.946 170.028 162.435 170.033 161.938 169.934C161.442 169.835 160.972 169.635 160.557 169.346C160.142 169.057 159.791 168.685 159.527 168.254C159.262 167.822 159.09 167.341 159.02 166.84C158.887 166.273 158.868 165.686 158.967 165.112C159.065 164.539 159.278 163.99 159.592 163.501C159.907 163.011 160.316 162.589 160.797 162.261C161.278 161.933 161.819 161.705 162.39 161.59C164.93 161.09 166.91 162.84 167.53 166.02C167.797 167.075 167.846 168.173 167.674 169.248C167.502 170.323 167.113 171.351 166.53 172.27C165.731 173.39 164.585 174.216 163.27 174.62C162.778 174.805 162.269 174.939 161.75 175.02L161.46 173.67ZM160.66 166.41C160.686 166.754 160.785 167.089 160.95 167.393C161.115 167.696 161.342 167.961 161.617 168.17C161.892 168.379 162.209 168.527 162.545 168.605C162.882 168.682 163.231 168.688 163.57 168.62C164.059 168.538 164.519 168.33 164.903 168.016C165.287 167.702 165.582 167.293 165.76 166.83C165.818 166.621 165.818 166.399 165.76 166.19C165.34 164.07 164.24 162.6 162.48 162.94C161.08 163.19 160.27 164.62 160.66 166.41Z" fill="#11648A"/>
<path d="M176.14 159.11L176.36 160.22L173.17 172.62L171.44 172.96L174.66 160.96L168.59 162.15L168.27 160.62L176.14 159.11Z" fill="#11648A"/>
<path d="M180.34 169.19C181.273 169.519 182.275 169.601 183.25 169.43C185.41 169 185.81 167.49 185.59 166.43C185.23 164.69 183.51 164.26 181.89 164.57L180.95 164.76L180.7 163.5L181.64 163.31C182.86 163.07 184.29 162.14 184 160.67C183.8 159.67 183 158.92 181.45 159.22C180.567 159.426 179.762 159.881 179.13 160.53L178.45 159.39C179.276 158.582 180.318 158.03 181.45 157.8C183.9 157.32 185.3 158.55 185.59 160.06C185.712 160.733 185.611 161.427 185.302 162.037C184.993 162.647 184.494 163.14 183.88 163.44C184.671 163.398 185.45 163.641 186.076 164.126C186.702 164.611 187.133 165.304 187.29 166.08C187.68 168.08 186.47 170.08 183.49 170.7C182.359 170.941 181.185 170.872 180.09 170.5L180.34 169.19Z" fill="#11648A"/>
<g opacity="0.24">
<path opacity="0.24" d="M341.03 120.52V111.02C328.03 109.97 320.47 102.56 319.39 92.53H328.91C330.32 99.01 334.97 102.77 341.03 103.71V78.43C326.64 74.26 321.03 69.04 321.03 59.33C321.03 48.78 329.47 41.78 341.03 41.05V33.95H347.19V41.15C361.58 42.51 366.19 51.49 366.88 57.97H357.58C356.39 53.69 353.79 49.51 347.19 48.36V71.13C363.75 75.72 368.51 82.4 368.51 91.7C368.51 103.29 360.51 110.08 347.19 111.02V120.52H341.03ZM341.03 69.35V48.15C333.24 48.78 330.43 53.27 330.43 58.28C330.43 63.29 332.92 66.62 341.03 69.35ZM347.19 80.21V103.81C354.66 103.08 358.66 99.43 358.66 92.64C358.66 87.1 356.17 83.24 347.19 80.21Z" fill="#11648A"/>
</g>
<path d="M344.01 119.8V110.29C331.01 109.29 323.46 101.84 322.38 91.81H331.9C333.3 98.29 337.95 102.05 344.01 102.99V77.71C329.63 73.54 324.01 68.32 324.01 58.61C324.01 48.06 332.45 41.06 344.01 40.33V33.23H350.18V40.43C364.57 41.79 369.18 50.77 369.87 57.25H360.57C359.37 52.97 356.78 48.79 350.18 47.64V70.41C366.73 75 371.49 81.68 371.49 90.98C371.49 102.57 363.49 109.36 350.18 110.29V119.8H344.01ZM344.01 68.63V47.43C336.22 48.06 333.41 52.55 333.41 57.56C333.41 62.57 335.9 65.91 344.01 68.62V68.63ZM350.18 79.49V103.09C357.65 102.36 361.64 98.7 361.64 91.92C361.64 86.38 359.16 82.52 350.18 79.49Z" fill="#EEF0F2"/>
<g opacity="0.24">
<path opacity="0.24" d="M236.55 124.32V118.18C228.17 117.5 223.28 112.71 222.55 106.24H228.7C229.066 108.119 230.022 109.831 231.428 111.13C232.835 112.428 234.618 113.244 236.52 113.46V97.13C227.23 94.44 223.6 91.06 223.6 84.79C223.6 77.98 229.05 73.46 236.52 72.99V68.4H240.52V73.06C249.82 73.93 252.82 79.73 253.24 83.92H247.24C246.908 82.3151 246.082 80.854 244.879 79.7407C243.676 78.6274 242.156 77.9175 240.53 77.71V92.41C251.22 95.41 254.3 99.7 254.3 105.7C254.3 113.19 249.13 117.57 240.53 118.18V124.32H236.55ZM236.55 91.32V77.62C231.55 78.02 229.7 80.92 229.7 84.16C229.7 87.4 231.27 89.51 236.55 91.27V91.32ZM240.55 98.32V113.52C245.38 113.05 247.96 110.69 247.96 106.31C247.94 102.73 246.33 100.24 240.53 98.28L240.55 98.32Z" fill="#11648A"/>
</g>
<path d="M238.48 123.85V117.71C230.1 117.04 225.21 112.25 224.48 105.77H230.62C230.987 107.65 231.944 109.364 233.352 110.663C234.761 111.961 236.546 112.776 238.45 112.99V96.67C229.16 93.97 225.52 90.6 225.52 84.33C225.52 77.52 230.97 73 238.45 72.52V67.94H242.45V72.62C251.75 73.5 254.75 79.3 255.17 83.48H249.17C248.833 81.8782 248.006 80.4209 246.804 79.31C245.601 78.1992 244.083 77.4897 242.46 77.28V91.98C253.15 94.98 256.23 99.26 256.23 105.26C256.23 112.75 251.06 117.14 242.46 117.74V123.88L238.48 123.85ZM238.48 90.85V77.11C233.48 77.52 231.63 80.42 231.63 83.65C231.63 86.88 233.27 89.05 238.48 90.8V90.85ZM242.48 97.85V113.09C247.3 112.62 249.89 110.26 249.89 105.87C249.87 102.27 248.27 99.77 242.46 97.82L242.48 97.85Z" fill="#EEF0F2"/>
<g opacity="0.24">
<path opacity="0.24" d="M171.06 80.1V74.91C163.97 74.33 159.83 70.28 159.24 64.81H164.44C164.748 66.4001 165.557 67.8498 166.748 68.9473C167.939 70.0449 169.45 70.7326 171.06 70.91V57.1C163.2 54.82 160.12 51.97 160.12 46.66C160.12 40.9 164.73 37.07 171.06 36.66V32.8H174.43V36.73C182.29 37.47 184.83 42.38 185.19 45.92H180.1C179.818 44.564 179.12 43.3296 178.104 42.3886C177.088 41.4476 175.804 40.8469 174.43 40.67V53.11C183.43 55.62 186.07 59.27 186.07 64.35C186.07 70.68 181.7 74.35 174.43 74.91V80.1H171.06ZM171.06 52.1V40.56C166.8 40.9 165.27 43.35 165.27 46.09C165.27 48.83 166.63 50.62 171.06 52.14V52.1ZM174.43 58.03V70.93C178.51 70.53 180.69 68.53 180.69 64.82C180.69 61.84 179.34 59.73 174.43 58.07V58.03Z" fill="#11648A"/>
</g>
<path d="M172.69 79.7V74.51C165.6 73.94 161.46 69.89 160.87 64.41H166.07C166.378 66.0012 167.186 67.4524 168.377 68.5516C169.568 69.6508 171.079 70.3405 172.69 70.52V56.71C164.83 54.43 161.76 51.57 161.76 46.27C161.76 40.5 166.37 36.68 172.69 36.27V32.4H176.06V36.34C183.92 37.08 186.46 41.99 186.82 45.52H181.74C181.454 44.165 180.754 42.9326 179.736 41.9936C178.718 41.0546 177.434 40.4557 176.06 40.28V52.71C185.06 55.22 187.71 58.88 187.71 63.96C187.71 70.29 183.33 73.96 176.06 74.51V79.7H172.69ZM172.69 51.75V40.16C168.43 40.5 166.9 42.96 166.9 45.7C166.9 48.44 168.27 50.26 172.69 51.75ZM176.06 57.68V70.62C180.14 70.23 182.33 68.23 182.33 64.52C182.33 61.45 180.97 59.33 176.06 57.68Z" fill="#EEF0F2"/>
</g>
<defs>
<linearGradient id="paint0_linear" x1="88.09" y1="126.52" x2="171.15" y2="126.52" gradientUnits="userSpaceOnUse">
<stop stop-color="#010101" stop-opacity="0"/>
<stop offset="0.95" stop-color="#010101"/>
</linearGradient>
<linearGradient id="paint1_linear" x1="60499.2" y1="41654.9" x2="57763.1" y2="161510" gradientUnits="userSpaceOnUse">
<stop stop-color="#010101" stop-opacity="0"/>
<stop offset="0.95" stop-color="#010101"/>
</linearGradient>
<linearGradient id="paint2_linear" x1="35585.4" y1="39853.8" x2="53669.3" y2="42171.6" gradientUnits="userSpaceOnUse">
<stop stop-color="#010101" stop-opacity="0"/>
<stop offset="0.95" stop-color="#010101"/>
</linearGradient>
<linearGradient id="paint3_linear" x1="15893.9" y1="2657.71" x2="15031.5" y2="3866.84" gradientUnits="userSpaceOnUse">
<stop stop-color="#010101" stop-opacity="0"/>
<stop offset="0.95" stop-color="#010101"/>
</linearGradient>
<linearGradient id="paint4_linear" x1="246.1" y1="413.19" x2="309.26" y2="111.09" gradientUnits="userSpaceOnUse">
<stop stop-color="white" stop-opacity="0"/>
<stop offset="0.95" stop-color="white"/>
</linearGradient>
<linearGradient id="paint5_linear" x1="7416.44" y1="27271.4" x2="7948.58" y2="27271.4" gradientUnits="userSpaceOnUse">
<stop stop-color="#010101" stop-opacity="0"/>
<stop offset="0.95" stop-color="#010101"/>
</linearGradient>
<linearGradient id="paint6_linear" x1="315.08" y1="265.64" x2="364.87" y2="265.64" gradientUnits="userSpaceOnUse">
<stop stop-color="#E5C6D6"/>
<stop offset="0.42" stop-color="#EAD4D0"/>
<stop offset="1" stop-color="#F0E9CB"/>
</linearGradient>
<linearGradient id="paint7_linear" x1="8502.13" y1="4630.31" x2="9892.47" y2="9066.27" gradientUnits="userSpaceOnUse">
<stop stop-color="#010101" stop-opacity="0"/>
<stop offset="0.95" stop-color="#010101"/>
</linearGradient>
<linearGradient id="paint8_linear" x1="12659.8" y1="33374.1" x2="19871.5" y2="33374.1" gradientUnits="userSpaceOnUse">
<stop stop-color="#E5C6D6"/>
<stop offset="0.42" stop-color="#EAD4D0"/>
<stop offset="1" stop-color="#F0E9CB"/>
</linearGradient>
<linearGradient id="paint9_linear" x1="10649.9" y1="15674.9" x2="11857.2" y2="15389" gradientUnits="userSpaceOnUse">
<stop stop-color="#010101" stop-opacity="0"/>
<stop offset="0.95" stop-color="#010101"/>
</linearGradient>
<linearGradient id="paint10_linear" x1="8282.19" y1="9547.18" x2="6013.16" y2="10075" gradientUnits="userSpaceOnUse">
<stop stop-color="#010101" stop-opacity="0"/>
<stop offset="0.95" stop-color="#010101"/>
</linearGradient>
<linearGradient id="paint11_linear" x1="3885.46" y1="1030.83" x2="3936.16" y2="819.099" gradientUnits="userSpaceOnUse">
<stop stop-color="#010101" stop-opacity="0"/>
<stop offset="0.95" stop-color="#010101"/>
</linearGradient>
<linearGradient id="paint12_linear" x1="6556.77" y1="5064.47" x2="6968.24" y2="5122.05" gradientUnits="userSpaceOnUse">
<stop stop-color="#E5C6D6"/>
<stop offset="0.42" stop-color="#EAD4D0"/>
<stop offset="1" stop-color="#F0E9CB"/>
</linearGradient>
<linearGradient id="paint13_linear" x1="2698.33" y1="3183.74" x2="2585.65" y2="3018.95" gradientUnits="userSpaceOnUse">
<stop stop-color="#010101" stop-opacity="0"/>
<stop offset="0.95" stop-color="#010101"/>
</linearGradient>
<linearGradient id="paint14_linear" x1="4441.76" y1="7607.31" x2="4420.91" y2="5912.76" gradientUnits="userSpaceOnUse">
<stop stop-color="#010101" stop-opacity="0"/>
<stop offset="0.95" stop-color="#010101"/>
</linearGradient>
<linearGradient id="paint15_linear" x1="1967.99" y1="1063.75" x2="2013.63" y2="1147.71" gradientUnits="userSpaceOnUse">
<stop stop-color="#010101" stop-opacity="0"/>
<stop offset="0.95" stop-color="#010101"/>
</linearGradient>
<linearGradient id="paint16_linear" x1="2294.29" y1="4461.65" x2="2602.26" y2="4461.65" gradientUnits="userSpaceOnUse">
<stop stop-color="#010101" stop-opacity="0"/>
<stop offset="0.95" stop-color="#010101"/>
</linearGradient>
<linearGradient id="paint17_linear" x1="12918.2" y1="11070.7" x2="18303.2" y2="14352.6" gradientUnits="userSpaceOnUse">
<stop stop-color="#010101" stop-opacity="0"/>
<stop offset="0.95" stop-color="#010101"/>
</linearGradient>
<linearGradient id="paint18_linear" x1="14135.8" y1="9319.87" x2="13075.2" y2="12536.3" gradientUnits="userSpaceOnUse">
<stop stop-color="#010101" stop-opacity="0"/>
<stop offset="0.95" stop-color="#010101"/>
</linearGradient>
<linearGradient id="paint19_linear" x1="3082.66" y1="2139.63" x2="3069.27" y2="2209.19" gradientUnits="userSpaceOnUse">
<stop stop-color="#010101" stop-opacity="0"/>
<stop offset="0.95" stop-color="#010101"/>
</linearGradient>
<linearGradient id="paint20_linear" x1="512.264" y1="2414.67" x2="598.153" y2="2467.01" gradientUnits="userSpaceOnUse">
<stop stop-color="#010101" stop-opacity="0"/>
<stop offset="0.95" stop-color="#010101"/>
</linearGradient>
<linearGradient id="paint21_linear" x1="15131.5" y1="-10944.7" x2="16399.6" y2="-13660.4" gradientUnits="userSpaceOnUse">
<stop stop-color="#010101" stop-opacity="0"/>
<stop offset="0.95" stop-color="#010101"/>
</linearGradient>
<linearGradient id="paint22_linear" x1="10151.5" y1="-10154.6" x2="14432.5" y2="-12065.7" gradientUnits="userSpaceOnUse">
<stop stop-color="#010101" stop-opacity="0"/>
<stop offset="0.95" stop-color="#010101"/>
</linearGradient>
<linearGradient id="paint23_linear" x1="2501.95" y1="-901.527" x2="2539.1" y2="-944.117" gradientUnits="userSpaceOnUse">
<stop stop-color="#010101" stop-opacity="0"/>
<stop offset="0.95" stop-color="#010101"/>
</linearGradient>
<linearGradient id="paint24_linear" x1="8691.06" y1="-16787.2" x2="8980.13" y2="-17406.3" gradientUnits="userSpaceOnUse">
<stop stop-color="#010101" stop-opacity="0"/>
<stop offset="0.95" stop-color="#010101"/>
</linearGradient>
<clipPath id="clip0">
<rect width="509.06" height="400.24" fill="white"/>
</clipPath>
</defs>
</svg>
